<!DOCTYPE svg PUBLIC "-//W3C//DTD SVG 1.1//EN" "http://www.w3.org/Graphics/SVG/1.1/DTD/svg11.dtd">
<!-- Uploaded to: SVG Repo, www.svgrepo.com, Transformed by: SVG Repo Mixer Tools -->
<svg fill="#f40101" width="800px" height="800px" viewBox="0 0 32 32" version="1.1" xmlns="http://www.w3.org/2000/svg">
<g id="SVGRepo_bgCarrier" stroke-width="0"/>
<g id="SVGRepo_tracerCarrier" stroke-linecap="round" stroke-linejoin="round"/>
<g id="SVGRepo_iconCarrier"> <title>star-half-stroke-filled</title> <path d="M30.383 12.699c-0.1-0.303-0.381-0.519-0.713-0.519-0 0-0 0-0 0h-9.898l-3.059-9.412c-0.1-0.303-0.381-0.518-0.712-0.518-0.083 0-0.163 0.014-0.238 0.039l0.005-0.002c-0.226 0.078-0.399 0.256-0.468 0.48l-0.001 0.005-0.012-0.004-3.059 9.412h-9.897c-0.414 0-0.749 0.336-0.749 0.75 0 0.248 0.121 0.469 0.307 0.605l0.002 0.001 8.007 5.818-3.059 9.412c-0.023 0.069-0.037 0.149-0.037 0.232 0 0.414 0.336 0.75 0.75 0.75 0.165 0 0.318-0.053 0.442-0.144l-0.002 0.001 8.008-5.819 8.006 5.819c0.122 0.090 0.275 0.144 0.441 0.144 0.414 0 0.75-0.336 0.75-0.75 0-0.083-0.014-0.164-0.039-0.239l0.002 0.005-3.059-9.412 8.010-5.818c0.188-0.138 0.308-0.357 0.308-0.605 0-0.083-0.014-0.163-0.038-0.238l0.002 0.005zM20.779 18.461c-0.188 0.138-0.309 0.358-0.309 0.607 0 0.083 0.014 0.163 0.039 0.238l-0.002-0.005 2.514 7.736-6.581-4.783c-0.116-0.080-0.259-0.128-0.414-0.128-0.009 0-0.018 0-0.028 0l0.001-0v-16.701l2.514 7.737c0.1 0.303 0.381 0.519 0.713 0.519 0 0 0 0 0 0h8.135z"/> </g>
</svg>